<?xml version="1.0" encoding="utf-8"?>
<!-- Svg Vector Icons : http://www.onlinewebfonts.com/icon -->
<!DOCTYPE svg PUBLIC "-//W3C//DTD SVG 1.1//EN" "http://www.w3.org/Graphics/SVG/1.1/DTD/svg11.dtd">
<svg version="1.1" xmlns="http://www.w3.org/2000/svg" xmlns:xlink="http://www.w3.org/1999/xlink" x="0px" y="0px" viewBox="0 0 1000 1000" enable-background="new 0 0 1000 1000" xml:space="preserve">
<metadata> Svg Vector Icons : http://www.onlinewebfonts.com/icon </metadata>
<g><g><g><path d="M989.2,120.3c-6.1,6.4-11.6,12.1-16.9,18C938,176.6,897,204.2,846,213.7c-27.8,5.2-56.4,5.5-84.4,9.7c-93.6,14-157.4,63.8-185.3,156.2c-7.3,24.1-15,48.2-24.9,71.2c-8.4,19.5-20.2,37.4-31.1,57.2c-5.6-7.3-9.2-11.8-12.9-16.6c4.4-9.5,6.5-18.5-0.6-26.5c-0.5-24.6,3.2-48.8,10.6-71.8c6.2-16.1,14.2-31.5,24.5-45.8c9.7-13.5,23.5-23.9,35.5-35.7c7.7-7.6,16.8-14.4,18.6-28.1c-11.3,0.2-17.7,5.5-23,12.2c-43,40.1-68.6,95.8-71.4,154.2c0-0.1-0.1-0.2-0.1-0.3c-5.5-52.8-29.3-102.4-67-139.7c-1.6-2.6-3.3-5.3-4.9-7.9c-6-9.5-12.7-17.9-26.5-16.6c2,6.6,4.5,12.8,8.9,17c8,7.7,17.8,13.4,25.6,21.3c33.2,33.7,47.7,76.5,57.9,121.3c0.1,0.4,0.2,0.7,0.2,1.1c0.5,4.2,0.9,8.4,1.2,12.7c-0.7,2.6-2.5,5-6,7.4c-3.1,2.1-4.9,10.9-3.2,14.8c5.1,11.3-1.6,16.7-8.3,24.5c-4.1-5.9-7.5-10.5-10.6-15.4c-22.4-34.9-34.9-73.8-46.5-113.1c-11.9-40.1-32.2-75.1-64.5-102.5c-42.3-35.9-92.5-52.1-146.8-53.7c-77.5-2.3-141.5-30.5-191-90.7c-2.8-3.4-6.5-6.1-9.9-9.2c8.1,59,29.5,110.6,71.4,152.5C56.5,287.9,53.8,300.5,70,323c4.5,6.2,9.3,12.3,15,17.3c11.4,9.9,23.4,19,35.2,28.4c-14.5,11.8-16.3,20.7-3,34.4c15.2,15.6,32.6,29.1,49.4,43.9c-8,16.3-5.7,26.9,12.1,37.6c10.2,6.2,21.8,12.8,33.3,13.9c31.6,3.1,63.5,4.6,95.3,4.4c34.7-0.2,68.9,1.8,102.5,11.1c-6.2,0.7-12.2,0.3-18.3,0c-37.2-1.5-73.7,2-109,14.4c-63.6,22.3-98.6,72.5-95.1,136.4c1.3,24.3,14.7,33.6,38.1,26.7c3.2-1,6.5-1.7,7.8-2c3,15.1,3.8,30.3,9.1,43.6c7.4,18.5,23.1,13.7,34.8,8.8c6,11.5,9,25.8,17.5,31.3c9.1,5.8,23.5,3.3,37.1,4.5c-5.6,29.7-15.3,57.7-40.9,77.1c-10.6,8.1-23,11.2-38.1,4.7c3.7-2.2,6.1-3.3,8-4.9c7.7-6.3,9.7-14.3,4.2-22.7c-5.5-8.5-14-9.3-22.7-5.4c-9.1,4.1-13.7,17-10.5,28c5,17.4,21.9,28.8,39.7,24c13.2-3.5,26.5-9.2,37.9-16.7c56.8-37.6,87.5-92.5,102.5-157.7c10.5-45.6,21.7-91.2,45.1-132.3c6.1-10.8,15.5-19.8,24.2-30.7c7.9,13.6,12.1,23.5,4,34.7c-2.2,3-3.2,7.7-3.1,11.6c0.9,27.8,1.5,55.6,4,83.2c0.8,8.9,6.9,17.4,11.7,29c4.6-6.4,7.4-8.9,8.6-12c13.9-36.8,16.6-74.9,5.7-112.4c-3.8-13.1-1.3-21.7,4.9-35.5c9.3,11.2,19.2,19.6,24.7,30.3c10.4,20.3,19.8,41.5,26.7,63.2c10.4,32.5,17.4,66.1,27.3,98.7c17.1,56.2,49.5,101.8,99.8,133.1c10.4,6.5,22.7,11.4,34.8,13.7c23.6,4.6,46-20.6,36.4-40.8c-3-6.2-12.2-11.4-19.4-13c-3.9-0.8-11.7,6.2-14.1,11.3c-3.9,8.3,0.3,15.6,9,19.7c1.3,0.6,2,2.2,3.3,3.6c-35.4,11.3-81.4-40.5-75.5-83.8c38.1,2.3,38.4,7.3,50.7-34.8c27,9.1,39.6,1.3,42.6-27.1c0.9-8.3,0.1-16.7,0.1-26.1c4.6,1.4,7.5,2.4,10.5,3.3c24.1,7.2,38.9-2.3,37.9-27.6c-0.8-19.9-2.8-40.9-9.9-59.3c-19.4-50.3-61.8-73.8-111.6-83.3c-32.8-6.3-66.8-6.7-98.7-9.6c15.7-2.2,33.7-6.4,51.7-7c35-1.1,70.2,0.1,105.2-0.3c25.5-0.3,50.2-5,72.1-19.2c17.7-11.5,20.5-21.7,11.6-40.4c7.7-5.3,15.8-10.2,23.2-16c7.8-6,16-12.1,22.2-19.6c5.8-7,11.4-15.7,12.7-24.3c0.8-5.3-6.5-11.8-10.2-18c21.7-13.2,41.8-29.1,54.9-52c9.9-17.4,5.8-29.2-12.1-38.3c-1.2-0.6-2.1-1.6-3.2-2.5c2.8-3,5.1-6.5,6.9-10.1C965.5,212.8,995.4,146.5,989.2,120.3z M306.8,764.9c0.5-0.1,1.1-0.3,1.6-0.5c1.1,0.6,2.2,1.2,3.4,1.8C310.1,766,308.4,765.6,306.8,764.9z"/></g></g><g></g><g></g><g></g><g></g><g></g><g></g><g></g><g></g><g></g><g></g><g></g><g></g><g></g><g></g><g></g></g>
</svg>